<svg width="13" height="13" viewBox="0 0 13 13" fill="none" xmlns="http://www.w3.org/2000/svg">
<path d="M6.705 12.51C5.885 12.51 5.115 12.355 4.395 12.045C3.675 11.745 3.04 11.325 2.49 10.785C1.95 10.235 1.525 9.6 1.215 8.88C0.915 8.16 0.765 7.39 0.765 6.57C0.765 5.74 0.915 4.97 1.215 4.26C1.525 3.54 1.95 2.91 2.49 2.37C3.04 1.82 3.675 1.395 4.395 1.095C5.115 0.785 5.885 0.63 6.705 0.63C7.535 0.63 8.305 0.785 9.015 1.095C9.735 1.395 10.365 1.82 10.905 2.37C11.455 2.91 11.88 3.54 12.18 4.26C12.49 4.97 12.645 5.74 12.645 6.57C12.645 7.39 12.49 8.16 12.18 8.88C11.88 9.6 11.455 10.235 10.905 10.785C10.365 11.325 9.735 11.745 9.015 12.045C8.305 12.355 7.535 12.51 6.705 12.51ZM6.705 11.88C7.445 11.88 8.135 11.745 8.775 11.475C9.415 11.195 9.975 10.815 10.455 10.335C10.945 9.845 11.325 9.28 11.595 8.64C11.875 8 12.015 7.31 12.015 6.57C12.015 5.83 11.875 5.14 11.595 4.5C11.325 3.86 10.945 3.3 10.455 2.82C9.975 2.33 9.415 1.95 8.775 1.68C8.135 1.4 7.445 1.26 6.705 1.26C5.965 1.26 5.275 1.4 4.635 1.68C3.995 1.95 3.43 2.33 2.94 2.82C2.46 3.3 2.08 3.86 1.8 4.5C1.53 5.14 1.395 5.83 1.395 6.57C1.395 7.31 1.53 8 1.8 8.64C2.08 9.28 2.46 9.845 2.94 10.335C3.43 10.815 3.995 11.195 4.635 11.475C5.275 11.745 5.965 11.88 6.705 11.88Z" fill="#6B7281"/>
</svg>
