<svg width="39" height="43" viewBox="0 0 39 43" fill="none" xmlns="http://www.w3.org/2000/svg">
<path d="M20.9611 3.7407C21.881 4.55729 22.1523 5.88275 21.6271 6.9951L20.8923 8.55132C20.0605 10.3129 18.1963 11.346 16.2617 11.1175L12.9685 20.2224C12.0097 22.8731 12.597 25.8368 14.4942 27.9215L16.4479 30.0685C17.298 31.0026 18.6212 31.3434 19.8168 30.9362L26.0041 28.8286C29.9872 27.4719 34.391 28.8334 36.9133 32.2015C40.2469 36.653 37.0705 43 31.5092 43H10.391C8.64366 43 7.07664 41.9242 6.44875 40.2936L1.20212 26.6678C-0.149175 23.1584 0.582629 19.1876 3.09619 16.3904L10.4767 8.17735C9.84702 5.97906 10.5059 3.61343 12.1812 2.05709L12.9179 1.3727C13.8155 0.538815 15.1217 0.3154 16.2454 0.803518L17.4095 1.30916C18.4632 1.76683 19.4377 2.38852 20.2968 3.15112L20.9611 3.7407Z" fill="black"/>
</svg>
