<svg width="39" height="43" viewBox="0 0 39 43" fill="none" xmlns="http://www.w3.org/2000/svg">
<path d="M18.0389 3.7407C17.119 4.55729 16.8477 5.88275 17.3729 6.9951L18.1077 8.55132C18.9395 10.3129 20.8037 11.346 22.7383 11.1175V11.1175L26.0315 20.2224C26.9903 22.8731 26.403 25.8368 24.5058 27.9215L22.5521 30.0685C21.702 31.0026 20.3788 31.3434 19.1832 30.9362L12.9959 28.8286C9.01278 27.4719 4.60898 28.8334 2.08669 32.2015V32.2015C-1.24687 36.653 1.92949 43 7.49076 43H28.609C30.3563 43 31.9234 41.9242 32.5512 40.2936L37.7979 26.6678C39.1492 23.1584 38.4174 19.1876 35.9038 16.3904L28.5233 8.17735V8.17735C29.153 5.97906 28.4941 3.61343 26.8188 2.05709L26.0821 1.3727C25.1845 0.538816 23.8783 0.3154 22.7546 0.803518L21.5905 1.30916C20.5368 1.76683 19.5623 2.38852 18.7032 3.15112L18.0389 3.7407Z" fill="black"/>
</svg>
