<svg width="40" height="39" viewBox="0 0 40 39" fill="none" xmlns="http://www.w3.org/2000/svg">
<path d="M0 18.72C0 9.89528 0 5.48296 2.78732 2.74148C5.57465 0 10.0607 0 19.033 0H20.6191C29.5914 0 34.0775 0 36.8649 2.74148C39.6522 5.48296 39.6522 9.89528 39.6522 18.72V20.28C39.6522 29.1047 39.6522 33.517 36.8649 36.2585C34.0775 39 29.5914 39 20.6191 39H19.033C10.0607 39 5.57465 39 2.78732 36.2585C0 33.517 0 29.1047 0 20.28V18.72Z" fill="#0077FF"/>
<path d="M21.0983 28.0961C12.0609 28.0961 6.90619 22.0023 6.69141 11.8623H11.2184C11.3671 19.3048 14.7044 22.4573 17.3478 23.1073V11.8623H21.6106V18.2811C24.2211 18.0048 26.9633 15.0798 27.8885 11.8623H32.1512C31.4408 15.8273 28.4669 18.7523 26.3521 19.9548C28.4669 20.9298 31.854 23.4811 33.1427 28.0961H28.4504C27.4425 25.0086 24.9315 22.6198 21.6106 22.2948V28.0961H21.0983Z" fill="white"/>
</svg>
