<svg width="228" height="39" viewBox="0 0 228 39" fill="none" xmlns="http://www.w3.org/2000/svg">
<g clip-path="url(#clip0_216_64)">
<path d="M113.924 24.196C113.924 27.1568 111.121 29.3008 107.177 29.3008H97.9385V10.9238H106.865C110.706 10.9238 113.405 12.9657 113.405 15.8243C113.405 17.7641 112.367 18.9893 110.81 19.7039C112.471 20.3165 113.924 21.9499 113.924 24.196ZM101.987 14.2929V18.2746H106.762C108.215 18.2746 109.149 17.4579 109.149 16.3348C109.149 15.2118 108.111 14.2929 106.762 14.2929H101.987ZM107.177 25.9317C108.734 25.9317 109.876 25.0128 109.876 23.6856C109.876 22.3584 108.838 21.4395 107.177 21.4395H101.987V25.9317H107.177Z" fill="black"/>
<path d="M129.182 29.1987L122.747 21.95H121.709V29.1987H117.557V10.9238H121.709V17.9683H122.747L128.975 10.9238H133.854L126.068 19.7039L134.58 29.1987H129.182Z" fill="black"/>
<path d="M134.58 20.113C134.58 14.5998 138.733 10.6182 144.545 10.6182C150.358 10.6182 154.51 14.5998 154.51 20.113C154.51 25.626 150.358 29.6077 144.545 29.6077C138.733 29.6077 134.58 25.626 134.58 20.113ZM150.151 20.113C150.151 16.6417 147.867 14.2936 144.545 14.2936C141.223 14.2936 138.94 16.6417 138.94 20.113C138.94 23.5841 141.223 25.9323 144.545 25.9323C147.867 25.9323 150.151 23.5841 150.151 20.113Z" fill="black"/>
<path d="M170.392 10.9238H174.545V29.1987H170.392V21.8479H162.088V29.1987H157.936V10.9238H162.088V18.1725H170.392V10.9238Z" fill="black"/>
<path d="M183.471 29.1987V14.5992H177.035V10.9238H193.955V14.5992H187.519V29.1987H183.471Z" fill="black"/>
<path d="M211.808 18.9899V29.1993H208.798L207.968 26.3407C207.033 27.8721 205.062 29.6077 202.051 29.6077C198.314 29.6077 195.615 27.1574 195.615 23.7883C195.615 20.4192 198.314 18.0711 203.816 18.0711H207.864C207.656 15.7229 206.411 14.0894 204.127 14.0894C202.259 14.0894 201.013 15.1103 200.39 16.2334L196.654 15.6208C197.588 12.4559 200.806 10.6182 204.335 10.6182C208.902 10.6182 211.808 13.681 211.808 18.9899ZM207.76 21.236H203.92C200.806 21.236 199.767 22.2569 199.767 23.5841C199.767 25.1155 201.013 26.1365 203.089 26.1365C205.788 26.1365 207.76 24.1967 207.76 21.236Z" fill="black"/>
<path d="M227.794 29.1987L221.359 21.95H220.32V29.1987H216.168V10.9238H220.32V17.9683H221.359L227.587 10.9238H232.466L224.68 19.7039L233.192 29.1987H227.794Z" fill="black"/>
<path d="M45 18.72C45 9.89528 45 5.48296 47.7873 2.74148C50.5746 0 55.0607 0 64.033 0H65.6191C74.5914 0 79.0775 0 81.8649 2.74148C84.6522 5.48296 84.6522 9.89528 84.6522 18.72V20.28C84.6522 29.1047 84.6522 33.517 81.8649 36.2585C79.0775 39 74.5914 39 65.6191 39H64.033C55.0607 39 50.5746 39 47.7873 36.2585C45 33.517 45 29.1047 45 20.28V18.72Z" fill="#0077FF"/>
<path d="M66.0983 28.0961C57.0609 28.0961 51.9062 22.0023 51.6914 11.8623H56.2184C56.3671 19.3048 59.7044 22.4573 62.3478 23.1073V11.8623H66.6106V18.2811C69.2211 18.0048 71.9633 15.0798 72.8885 11.8623H77.1512C76.4408 15.8273 73.4669 18.7523 71.3521 19.9548C73.4669 20.9298 76.854 23.4811 78.1427 28.0961H73.4504C72.4425 25.0086 69.9315 22.6198 66.6106 22.2948V28.0961H66.0983Z" fill="white"/>
</g>
<defs>
<clipPath id="clip0_216_64">
<rect width="228" height="39" fill="white"/>
</clipPath>
</defs>
</svg>
