<svg width="72" height="72" viewBox="0 0 72 72" fill="none" xmlns="http://www.w3.org/2000/svg">
<circle cx="36" cy="36" r="36" fill="#0077FF"/>
<path fill-rule="evenodd" clip-rule="evenodd" d="M67.8434 39.186C67.7891 39.7357 67.2856 40.1216 66.7379 40.0501C66.1903 39.9787 65.806 39.477 65.8591 38.9272C65.9523 37.9646 66 36.9881 66 36C66 35.0119 65.9523 34.0354 65.8591 33.0728C65.806 32.523 66.1903 32.0213 66.7379 31.9498C67.2856 31.8784 67.7891 32.2643 67.8434 32.8139C67.947 33.8619 68 34.9248 68 36C68 37.0752 67.947 38.1381 67.8434 39.186ZM65.1743 22.8332C65.4018 23.3365 65.1583 23.9223 64.6481 24.1338C64.1379 24.3454 63.5544 24.1025 63.3259 23.5998C62.5138 21.8132 61.5313 20.1198 60.399 18.5404C60.0772 18.0916 60.1579 17.4648 60.5959 17.1282C61.0338 16.7917 61.6629 16.873 61.9857 17.3212C63.2225 19.0388 64.2932 20.884 65.1743 22.8332ZM54.6788 10.0143C55.127 10.3371 55.2083 10.9662 54.8718 11.4041C54.5352 11.8421 53.9084 11.9228 53.4595 11.601C51.8802 10.4687 50.1868 9.48622 48.4002 8.67411C47.8975 8.44556 47.6546 7.86206 47.8662 7.3519C48.0777 6.84174 48.6635 6.59821 49.1668 6.82569C51.116 7.7068 52.9612 8.77752 54.6788 10.0143ZM39.1861 4.15662C39.7357 4.21094 40.1216 4.71443 40.0501 5.26207C39.9787 5.80972 39.477 6.19404 38.9272 6.14085C37.9646 6.04771 36.9881 6 36 6C35.0119 6 34.0354 6.04771 33.0728 6.14085C32.523 6.19404 32.0213 5.80972 31.9498 5.26207C31.8784 4.71443 32.2643 4.21094 32.8139 4.15662C33.8619 4.05303 34.9248 4 36 4C37.0752 4 38.1381 4.05303 39.1861 4.15662ZM22.8332 6.82569C23.3365 6.59821 23.9223 6.84174 24.1338 7.3519C24.3454 7.86206 24.1025 8.44556 23.5998 8.67411C21.8132 9.48622 20.1198 10.4687 18.5404 11.601C18.0916 11.9228 17.4648 11.8421 17.1282 11.4041C16.7917 10.9662 16.873 10.3371 17.3212 10.0143C19.0388 8.77752 20.884 7.7068 22.8332 6.82569ZM10.0143 17.3212C10.3371 16.873 10.9662 16.7917 11.4041 17.1282C11.8421 17.4648 11.9228 18.0916 11.601 18.5405C10.4687 20.1198 9.48622 21.8132 8.67411 23.5998C8.44556 24.1025 7.86206 24.3454 7.3519 24.1338C6.84174 23.9223 6.59821 23.3365 6.82569 22.8332C7.7068 20.884 8.77752 19.0388 10.0143 17.3212ZM5.26207 31.9499C4.71443 31.8784 4.21094 32.2643 4.15662 32.814C4.05303 33.8619 4 34.9248 4 36C4 37.0752 4.05303 38.1381 4.15662 39.1861C4.21094 39.7357 4.71443 40.1216 5.26207 40.0502C5.80972 39.9787 6.19404 39.477 6.14085 38.9272C6.04771 37.9646 6 36.9881 6 36C6 35.0119 6.04771 34.0354 6.14085 33.0728C6.19404 32.523 5.80972 32.0213 5.26207 31.9499ZM6.82569 49.1668C6.59821 48.6635 6.84174 48.0777 7.3519 47.8662C7.86206 47.6546 8.44556 47.8975 8.67411 48.4002C9.48622 50.1868 10.4687 51.8802 11.601 53.4596C11.9228 53.9084 11.8421 54.5352 11.4041 54.8718C10.9662 55.2083 10.3371 55.127 10.0143 54.6788C8.77752 52.9612 7.7068 51.116 6.82569 49.1668ZM17.3212 61.9857C16.873 61.6629 16.7917 61.0338 17.1282 60.5959C17.4648 60.1579 18.0916 60.0772 18.5405 60.399C20.1198 61.5313 21.8132 62.5138 23.5998 63.3259C24.1025 63.5544 24.3454 64.1379 24.1338 64.6481C23.9223 65.1583 23.3365 65.4018 22.8332 65.1743C20.884 64.2932 19.0388 63.2225 17.3212 61.9857ZM32.814 67.8434C32.2643 67.7891 31.8784 67.2856 31.9499 66.7379C32.0213 66.1903 32.523 65.806 33.0728 65.8591C34.0354 65.9523 35.0119 66 36 66C36.9881 66 37.9646 65.9523 38.9272 65.8591C39.477 65.806 39.9787 66.1903 40.0502 66.7379C40.1216 67.2856 39.7357 67.7891 39.1861 67.8434C38.1381 67.947 37.0752 68 36 68C34.9248 68 33.8619 67.947 32.814 67.8434ZM49.1668 65.1743C48.6635 65.4018 48.0777 65.1583 47.8662 64.6481C47.6546 64.1379 47.8975 63.5544 48.4002 63.3259C50.1868 62.5138 51.8802 61.5313 53.4596 60.399C53.9084 60.0772 54.5352 60.1579 54.8718 60.5959C55.2083 61.0338 55.127 61.6629 54.6788 61.9857C52.9612 63.2225 51.116 64.2932 49.1668 65.1743ZM61.9857 54.6788C61.6629 55.127 61.0338 55.2083 60.5959 54.8718C60.1579 54.5352 60.0772 53.9084 60.399 53.4595C61.5313 51.8802 62.5138 50.1868 63.3259 48.4002C63.5544 47.8975 64.1379 47.6546 64.6481 47.8662C65.1583 48.0777 65.4018 48.6635 65.1743 49.1668C64.2932 51.116 63.2225 52.9612 61.9857 54.6788Z" fill="white"/>
<path fill-rule="evenodd" clip-rule="evenodd" d="M19.0439 34.2872C19.0148 34.6877 19 35.0921 19 35.5C19 37.5261 19.3652 39.4668 20.0333 41.2601C19.9559 40.492 19.9338 39.7034 19.978 39.0797L20.0238 38.4307L19.8312 37.859C19.6321 37.2684 19.4915 36.8091 19.4573 36.6377C19.4465 36.5835 19.4109 36.4329 19.3785 36.303C19.2784 35.904 19.1717 35.3164 19.1137 34.8462C19.0924 34.6729 19.0628 34.4364 19.0439 34.2872ZM20.5347 42.4583C20.7368 42.2751 20.9329 42.1356 21.2633 41.9376C21.5474 41.7673 21.6603 41.6937 21.7448 41.7182C21.809 41.7369 21.8567 41.8121 21.9505 41.9446C22.6005 42.8622 23.5383 43.8972 24.3756 44.6216C24.6296 44.8413 24.7656 44.9623 24.7975 44.9392C24.8347 44.9123 24.7301 44.6891 24.5059 44.1973C24.1256 43.3636 23.4357 41.4113 23.3624 40.9611C23.3409 40.8295 23.3459 40.8235 23.5917 40.694C24.4326 40.2506 26.5934 38.6104 26.5934 38.4153C26.5934 38.3955 26.3931 38.3299 26.1483 38.2698C25.6135 38.1385 24.7277 37.8438 24.2981 37.6543C23.6016 37.3473 22.8224 36.9171 22.5672 36.6988C22.4821 36.6259 22.4573 36.5604 22.4312 36.3382C22.4136 36.1889 22.3804 35.9163 22.3577 35.7322C22.2277 34.6833 22.1579 33.66 22.1265 32.3461C22.1112 31.7013 22.0869 31.3044 22.0629 31.3074C21.9193 31.3249 20.8455 34.0175 20.6789 34.7773C20.6633 34.8486 20.6259 34.9053 20.5945 34.9053C20.4184 34.9053 19.5977 33.5914 19.2286 32.747C19.6769 30.0779 20.7661 27.6262 22.3324 25.5555C22.3733 25.5559 22.4184 25.5562 22.4678 25.5564C22.9454 25.5585 23.468 25.6461 23.607 25.7473C23.6752 25.7969 23.6682 25.8241 23.4766 26.2478C22.8581 27.6166 22.406 29.1164 22.2021 30.4759C22.1794 30.6274 22.1505 30.8002 22.138 30.8597C22.0946 31.0653 22.1933 30.9655 22.6826 30.3085C23.6407 29.0219 25.7177 26.7923 25.9111 26.8428C26.1989 26.9175 28.3752 28.5454 29.076 29.2098C29.3081 29.4298 29.3106 29.4104 29.1523 28.5982C29.0212 27.9253 28.9884 27.7379 28.8907 27.0996C28.6781 25.711 28.614 24.6272 28.7377 24.5126C29.178 24.1045 31.849 22.4666 33.2358 21.7543C33.6735 21.5294 33.6418 21.5213 32.4903 21.5609C31.208 21.6049 30.1756 21.7196 29.1856 21.9277C29.033 21.9597 28.8933 21.971 28.8744 21.9524C28.771 21.8512 29.2367 20.5331 29.5213 20.1218C29.523 20.1194 29.5246 20.117 29.5263 20.1146C31.3787 19.3949 33.3932 19 35.5 19C35.9402 19 36.3763 19.0172 36.8078 19.0511L36.9226 19.1438C37.4141 19.5403 37.8371 20.0706 38.1492 20.681C38.2333 20.8457 38.2848 20.9334 38.2602 20.9845C38.2291 21.0491 38.0763 21.055 37.7142 21.0834C36.8946 21.1475 36.2622 21.204 35.9135 21.2443C34.5445 21.4028 33.8791 21.4989 33.8328 21.5451C33.8143 21.5635 34.159 21.7183 34.5989 21.8891C35.4886 22.2343 37.0757 22.9034 37.7142 23.2022C38.6248 23.6285 38.9728 23.8043 39.0216 23.8631C39.2035 24.0808 39.2271 27.6683 39.0537 28.6993C39.0322 28.8268 39.0294 28.9455 39.0472 28.963C39.1416 29.0566 41.3011 27.0055 42.0246 26.1349C42.2271 25.8912 42.4138 25.6919 42.4396 25.6919C42.5493 25.6919 44.3802 26.8631 45.3324 27.5423L45.6996 27.804C45.8415 27.9048 45.8513 27.84 45.7523 27.4553C45.4191 26.1616 44.7433 24.6532 44.058 23.6744C43.9863 23.5719 43.9275 23.4592 43.9275 23.4241C43.9275 23.2768 44.602 22.5533 45.0046 22.2688C45.103 22.1993 45.1584 22.1583 45.1539 22.1175C46.0162 22.7406 46.8159 23.445 47.5417 24.2195C47.5184 24.2276 47.5606 24.3241 47.6703 24.5105C47.7903 24.7142 47.999 25.1397 48.221 25.633C48.3056 25.8211 48.5061 26.3889 48.6173 26.755C48.7205 27.0958 48.9133 27.8701 48.9137 27.946C48.9137 27.9669 48.9143 27.9826 48.9072 27.9931C48.8858 28.0252 48.7939 28.0101 48.4046 27.9494C47.6765 27.8356 45.9824 27.8628 45.9872 27.9879C45.9881 28.0137 46.1158 28.1233 46.2712 28.2316C47.0709 28.7893 48.1849 29.7361 48.9515 30.5101L49.2858 30.8476L49.3204 31.4492C49.3575 32.098 49.3078 33.4244 49.2083 34.443C49.1599 34.937 49.1366 35.1256 49.1786 35.1414C49.2072 35.1523 49.2664 35.0823 49.369 34.974C49.8079 34.5108 50.4842 33.5859 50.714 33.1348C50.7695 33.0258 50.8287 32.9367 50.8454 32.9367C50.9686 32.9367 51.6296 34.3096 51.8453 35.0136C51.9225 35.2654 51.9869 35.3633 51.9982 35.2562C51.9994 35.3373 52 35.4186 52 35.5C52 44.2683 45.1605 51.4392 36.5254 51.9687C36.9305 51.849 37.7364 51.4096 38.1457 51.0525C38.1978 51.0069 38.2424 50.9681 38.2445 50.9664C38.2467 50.9648 38.6847 50.956 39.2179 50.9471C39.7513 50.9382 40.3034 50.912 40.4449 50.8891C41.162 50.7728 41.2997 50.7434 42.0871 50.5383C42.1909 50.5113 42.3581 50.4529 42.7897 50.2934C42.9217 50.2446 42.9291 50.1955 42.8094 50.1636C41.9863 49.9445 41.1791 49.6351 40.524 49.2878C40.339 49.1896 40.1739 49.0971 40.1571 49.082C40.1404 49.0669 40.293 48.8343 40.4963 48.5652C41.0685 47.807 42.0674 46.2734 42.0674 46.1527C42.0674 46.0987 41.9763 46.1343 41.3867 46.4185C41.0537 46.5789 40.7189 46.737 40.6427 46.7695C40.1844 46.9655 39.2188 47.3117 38.7036 47.4651C38.475 47.5331 38.2391 47.6043 38.1792 47.6234C37.9453 47.6979 36.2215 46.1322 35.0379 44.7703C34.8881 44.5981 34.6994 44.3854 34.6183 44.2978L34.4708 44.1383L34.47 44.5208C34.4694 44.7312 34.4858 45.0767 34.5066 45.2886C34.5274 45.5004 34.5637 45.9219 34.5875 46.2251C34.6113 46.5283 34.6481 46.9003 34.6693 47.0519C34.7621 47.7172 34.7938 47.929 34.8254 48.0946C34.8673 48.3145 34.8365 48.3536 34.5972 48.3837C34.4941 48.3969 34.1424 48.4426 33.8159 48.4856C33.4895 48.5285 32.8839 48.5923 32.4703 48.6276C32.0568 48.6626 31.7047 48.7047 31.6881 48.7208C31.6714 48.7371 31.8584 48.87 32.1037 49.0162C33.0044 49.5532 34.0677 50.0411 35.0032 50.3465C35.2185 50.4167 35.3232 50.4479 35.3969 50.5137C35.4735 50.5821 35.5167 50.6879 35.6157 50.9138C35.836 51.4163 36.0913 51.8193 36.2921 51.9813C36.0296 51.9937 35.7655 52 35.5 52C34.2823 52 33.0955 51.8681 31.9529 51.6178C31.9 51.585 31.8299 51.5461 31.7426 51.5012C30.9935 51.1163 29.3779 49.9785 29.5023 49.9236C29.7398 49.8188 30.7437 49.2483 31.0779 49.0283C31.3054 48.8786 31.4361 48.7987 31.4253 48.7511C31.4117 48.6914 31.1748 48.6826 30.6258 48.6502C29.6626 48.5934 28.6306 48.4468 27.8401 48.2545C27.5252 48.1779 27.5219 48.1758 27.2165 47.851C26.5578 47.1506 25.9834 46.4695 25.2479 45.5171L24.9511 45.1328L24.9374 45.3442C24.9189 45.6308 25.0213 46.5088 25.1328 47.0202C25.1959 47.3096 25.1827 47.396 25.0798 47.3659C24.7758 47.2768 23.7295 46.7326 23.0382 46.3149C22.0344 45.1592 21.1886 43.8624 20.5347 42.4583ZM51.8813 33.511C51.9442 34.0339 51.9825 34.5643 51.9953 35.1011C51.9777 34.7794 51.9155 33.9146 51.8813 33.511ZM44.9359 21.9626C42.7793 20.4566 40.246 19.4527 37.5057 19.1207C37.7759 19.1876 38.0698 19.2701 38.2484 19.3338C39.4489 19.7619 40.3502 20.2065 41.1916 20.7861C41.6716 21.1167 41.6861 21.1242 41.8332 21.1246C42.4288 21.1253 44.0554 21.5467 44.7784 21.8875C44.8387 21.9159 44.891 21.9407 44.9359 21.9626ZM27.8967 20.8524C26.168 21.7516 24.6185 22.9478 23.3159 24.3734C23.8369 23.999 24.394 23.6632 24.9827 23.3691C25.3027 23.2092 25.3665 23.1559 25.7719 22.7106C26.4234 21.9949 27.1284 21.3781 27.8967 20.8524ZM31.7768 39.208C29.8482 39.0462 28.2341 38.7989 27.072 38.4868C26.9036 38.4417 26.8079 38.4173 26.8006 38.3769C26.791 38.3242 26.9314 38.2443 27.2567 38.0557C27.4905 37.9202 27.7886 37.7432 27.9192 37.6622C28.0498 37.5814 28.3525 37.3947 28.592 37.2472C29.3116 36.8042 30.9935 35.6807 31.0131 35.6296C31.0233 35.6035 30.9155 35.2128 30.7734 34.7613C30.263 33.1376 29.6187 30.7703 29.3849 29.6588C29.3745 29.6092 29.366 29.5719 29.3796 29.5598C29.4189 29.5252 29.6415 29.6982 30.5312 30.3851C31.5065 31.138 34.2099 33.1127 34.3269 33.1573C34.3887 33.1809 35.4714 32.3002 36.6247 31.2879C37.2349 30.7524 37.324 30.6707 38.2528 29.7964C38.6035 29.4663 38.9039 29.1961 38.9205 29.1961C38.9531 29.1961 38.9263 29.5007 38.8683 29.7868C38.7878 30.1847 38.7 30.6032 38.666 30.7515C38.6197 30.9538 38.5552 31.238 38.5078 31.4503C38.4872 31.5423 38.4348 31.7683 38.3913 31.9524C38.348 32.1364 38.2928 32.3756 38.2687 32.4839C38.2445 32.5921 38.1822 32.8491 38.1302 33.0547C38.0317 33.4434 37.9519 33.7608 37.8556 34.1474C37.8245 34.2719 37.7623 34.5066 37.717 34.6691C37.6084 35.0593 37.5495 35.215 37.5964 35.3258C37.6378 35.4235 37.7614 35.4863 38.0056 35.644C39.2186 36.4275 41.0621 37.5487 41.9777 38.0601C42.0823 38.1185 42.1528 38.1552 42.1517 38.1896C42.1496 38.2538 41.899 38.31 41.1571 38.4837C40.2024 38.7072 38.586 38.9596 37.3184 39.0832C36.6984 39.1438 36.4821 39.1519 36.3685 39.2641C36.2933 39.3384 36.2632 39.4583 36.1906 39.6695C36.0583 40.0541 35.9297 40.408 35.8541 40.5947C35.8366 40.638 35.7866 40.7709 35.7431 40.89C35.6996 41.0092 35.5928 41.2926 35.5057 41.52C35.247 42.1956 35.1732 42.3894 35.0926 42.5802C35.0547 42.6701 35.0153 42.7594 34.9544 42.8981C34.9115 42.9954 34.846 43.1462 34.8088 43.2328C34.5752 43.7773 34.4946 43.9777 34.4303 43.9726C34.3899 43.9694 34.3559 43.8851 34.2945 43.754C33.6767 42.4355 32.9051 40.6745 32.6688 40.0436C32.6201 39.9135 32.5283 39.6833 32.4649 39.5317L32.3495 39.2561L31.7768 39.208ZM45.4388 44.6221C44.356 45.1717 42.6892 45.8887 42.3396 45.9552L42.2059 45.9806L42.2884 45.8863C42.3337 45.8344 42.5032 45.6414 42.6651 45.4573C43.4128 44.6069 44.052 43.8054 44.7652 42.8238L45.2663 42.134L45.1847 41.9746C44.866 41.3528 43.6838 39.7736 42.7849 38.7684C42.5645 38.5219 42.3841 38.3049 42.3841 38.2861C42.3841 38.2773 42.3839 38.2703 42.3871 38.2653C42.3993 38.2455 42.4619 38.2568 42.7798 38.3134C44.5509 38.6297 45.8878 38.8094 46.88 38.8644L47.3112 38.8885L47.5641 38.4276C47.8525 37.9018 48.4282 36.7695 48.6442 36.303C48.7244 36.1298 48.8571 35.8463 48.939 35.6731L49.0883 35.3581L49.1172 35.5155C49.1665 35.7836 49.2379 36.9665 49.2645 37.9567L49.2899 38.9016L49.5274 38.89C50.1628 38.8587 51.065 38.6779 51.4412 38.5066C51.5584 38.4532 51.6609 38.4095 51.6692 38.4095C51.7083 38.4095 51.6763 38.6045 51.6017 38.8203C51.2009 39.9827 50.3848 41.1098 49.1884 42.1538C48.9813 42.3345 48.9651 42.3619 48.9175 42.6122C48.861 42.9086 48.6509 43.7976 48.5942 43.9808C48.1249 45.4943 47.6807 46.4152 47.0307 47.2221C46.7144 47.6148 46.673 47.6043 46.7401 47.148C46.8016 46.7295 46.7655 45.9534 46.6619 45.4648C46.553 44.951 46.335 44.2711 46.2712 44.2468C46.242 44.2356 45.8672 44.4044 45.4388 44.6221Z" fill="white"/>
</svg>
