<svg width="65" height="65" viewBox="0 0 65 65" fill="none" xmlns="http://www.w3.org/2000/svg">
<path d="M32.5 65C50.4493 65 65 50.4493 65 32.5C65 14.5507 50.4493 0 32.5 0C14.5507 0 0 14.5507 0 32.5C0 50.4493 14.5507 65 32.5 65Z" fill="url(#paint0_linear_270_168)"/>
<path fill-rule="evenodd" clip-rule="evenodd" d="M14.7115 32.1564C24.1859 28.0285 30.5037 25.3072 33.6648 23.9924C42.6904 20.2383 44.5658 19.5862 45.7882 19.5647C46.057 19.5599 46.6582 19.6266 47.0476 19.9425C47.3764 20.2093 47.4668 20.5697 47.5101 20.8227C47.5534 21.0756 47.6073 21.6519 47.5645 22.1021C47.0754 27.2411 44.959 39.7122 43.8824 45.4679C43.4268 47.9034 42.5297 48.72 41.6613 48.7999C39.774 48.9736 38.3408 47.5527 36.5128 46.3544C33.6524 44.4794 32.0364 43.3121 29.2599 41.4824C26.0511 39.3679 28.1313 38.2057 29.9599 36.3064C30.4385 35.8093 38.7541 28.2456 38.9151 27.5595C38.9352 27.4737 38.9539 27.1538 38.7639 26.9849C38.5738 26.816 38.2934 26.8737 38.091 26.9197C37.8041 26.9848 33.2345 30.0051 24.3823 35.9806C23.0852 36.8713 21.9104 37.3052 20.8578 37.2825C19.6974 37.2574 17.4652 36.6264 15.8058 36.087C13.7705 35.4254 12.1528 35.0756 12.2937 33.952C12.3671 33.3667 13.173 32.7682 14.7115 32.1564Z" fill="white"/>
<defs>
<linearGradient id="paint0_linear_270_168" x1="32.5" y1="0" x2="32.5" y2="64.5179" gradientUnits="userSpaceOnUse">
<stop stop-color="#2AABEE"/>
<stop offset="1" stop-color="#229ED9"/>
</linearGradient>
</defs>
</svg>
