<svg width="65" height="65" viewBox="0 0 65 65" fill="none" xmlns="http://www.w3.org/2000/svg">
<path d="M32.5 65C50.4493 65 65 50.4493 65 32.5C65 14.5507 50.4493 0 32.5 0C14.5507 0 0 14.5507 0 32.5C0 50.4493 14.5507 65 32.5 65Z" fill="#FF0000"/>
<path fill-rule="evenodd" clip-rule="evenodd" d="M46.2465 21.7202C47.7086 22.113 48.8652 23.2696 49.258 24.7317C49.9782 27.3941 50 32.9153 50 32.9153C50 32.9153 50 38.4583 49.2798 41.0988C48.887 42.561 47.7304 43.7176 46.2683 44.1104C43.6277 44.8306 33 44.8306 33 44.8306C33 44.8306 22.3723 44.8306 19.7317 44.1104C18.2696 43.7176 17.113 42.561 16.7202 41.0988C16 38.4365 16 32.9153 16 32.9153C16 32.9153 16 27.3941 16.6983 24.7535C17.0911 23.2914 18.2478 22.1348 19.7099 21.742C22.3504 21.0218 32.9782 21 32.9782 21C32.9782 21 43.6059 21 46.2465 21.7202ZM38.4116 32.9155L29.5952 38.022V27.8089L38.4116 32.9155Z" fill="white"/>
</svg>
